<svg width="48" height="45" viewBox="0 0 48 45" fill="none" xmlns="http://www.w3.org/2000/svg">
<g clip-path="url(#clip0)">
<path d="M39.09 3.79688C38.8083 3.48816 38.4587 3.24031 38.0651 3.07038C37.6715 2.90045 37.2433 2.81247 36.81 2.8125H11.19C10.7567 2.81247 10.3285 2.90045 9.9349 3.07038C9.54131 3.24031 9.19166 3.48816 8.91 3.79688L1.083 12.3581C0.384171 13.1227 3.8147e-05 14.0963 0 15.1031V15.8203C-0.000164032 17.2124 0.463627 18.5698 1.32655 19.7027C2.18947 20.8357 3.4084 21.6875 4.81297 22.1393C6.21755 22.591 7.73758 22.6201 9.16061 22.2223C10.5836 21.8246 11.8386 21.02 12.75 19.9209C13.4156 20.7247 14.2685 21.3749 15.2435 21.822C16.2185 22.269 17.2897 22.5009 18.375 22.5C19.4604 22.5011 20.5316 22.2693 21.5066 21.8223C22.4817 21.3752 23.3346 20.7248 24 19.9209C24.6654 20.7248 25.5183 21.3752 26.4934 21.8223C27.4684 22.2693 28.5396 22.5011 29.625 22.5C30.7104 22.5011 31.7816 22.2693 32.7566 21.8223C33.7317 21.3752 34.5846 20.7248 35.25 19.9209C36.1614 21.02 37.4164 21.8246 38.8394 22.2223C40.2624 22.6201 41.7825 22.591 43.187 22.1393C44.5916 21.6875 45.8105 20.8357 46.6735 19.7027C47.5364 18.5698 48.0002 17.2124 48 15.8203V15.1031C48 14.0963 47.6158 13.1227 46.917 12.3581L39.087 3.79406L39.09 3.79688ZM33.75 15.8203C33.75 16.846 33.3154 17.8296 32.5418 18.5548C31.7682 19.2801 30.719 19.6875 29.625 19.6875C28.531 19.6875 27.4818 19.2801 26.7082 18.5548C25.9346 17.8296 25.5 16.846 25.5 15.8203C25.5 15.4474 25.342 15.0897 25.0607 14.8259C24.7794 14.5622 24.3978 14.4141 24 14.4141C23.6022 14.4141 23.2206 14.5622 22.9393 14.8259C22.658 15.0897 22.5 15.4474 22.5 15.8203C22.5 16.846 22.0654 17.8296 21.2918 18.5548C20.5182 19.2801 19.469 19.6875 18.375 19.6875C17.281 19.6875 16.2318 19.2801 15.4582 18.5548C14.6846 17.8296 14.25 16.846 14.25 15.8203C14.25 15.4474 14.092 15.0897 13.8107 14.8259C13.5294 14.5622 13.1478 14.4141 12.75 14.4141C12.3522 14.4141 11.9706 14.5622 11.6893 14.8259C11.408 15.0897 11.25 15.4474 11.25 15.8203C11.25 16.846 10.8154 17.8296 10.0418 18.5548C9.26823 19.2801 8.21902 19.6875 7.125 19.6875C6.03098 19.6875 4.98177 19.2801 4.20818 18.5548C3.4346 17.8296 3 16.846 3 15.8203V15.1031C2.99997 14.768 3.12764 14.4438 3.36 14.1891L11.19 5.625H36.81L44.64 14.1891C44.8724 14.4438 45 14.768 45 15.1031V15.8203C45 16.846 44.5654 17.8296 43.7918 18.5548C43.0182 19.2801 41.969 19.6875 40.875 19.6875C39.781 19.6875 38.7318 19.2801 37.9582 18.5548C37.1846 17.8296 36.75 16.846 36.75 15.8203C36.75 15.4474 36.592 15.0897 36.3107 14.8259C36.0294 14.5622 35.6478 14.4141 35.25 14.4141C34.8522 14.4141 34.4706 14.5622 34.1893 14.8259C33.908 15.0897 33.75 15.4474 33.75 15.8203ZM43.5 23.9062C43.1022 23.9062 42.7206 24.0544 42.4393 24.3181C42.158 24.5819 42 24.9395 42 25.3125V42.1875H39V28.125C39 27.3791 38.6839 26.6637 38.1213 26.1363C37.5587 25.6088 36.7956 25.3125 36 25.3125H27C26.2044 25.3125 25.4413 25.6088 24.8787 26.1363C24.3161 26.6637 24 27.3791 24 28.125V42.1875H6V25.3125C6 24.9395 5.84196 24.5819 5.56066 24.3181C5.27936 24.0544 4.89782 23.9062 4.5 23.9062C4.10218 23.9062 3.72064 24.0544 3.43934 24.3181C3.15804 24.5819 3 24.9395 3 25.3125V42.1875H1.5C1.10218 42.1875 0.720642 42.3357 0.439339 42.5994C0.158035 42.8631 0 43.2208 0 43.5938C0 43.9667 0.158035 44.3244 0.439339 44.5881C0.720642 44.8518 1.10218 45 1.5 45H46.5C46.8978 45 47.2794 44.8518 47.5607 44.5881C47.842 44.3244 48 43.9667 48 43.5938C48 43.2208 47.842 42.8631 47.5607 42.5994C47.2794 42.3357 46.8978 42.1875 46.5 42.1875H45V25.3125C45 24.9395 44.842 24.5819 44.5607 24.3181C44.2794 24.0544 43.8978 23.9062 43.5 23.9062ZM36 42.1875H27V28.125H36V42.1875ZM21 28.125C21 27.3791 20.6839 26.6637 20.1213 26.1363C19.5587 25.6088 18.7956 25.3125 18 25.3125H12C11.2043 25.3125 10.4413 25.6088 9.87868 26.1363C9.31607 26.6637 9 27.3791 9 28.125V36.5625C9 37.3084 9.31607 38.0238 9.87868 38.5512C10.4413 39.0787 11.2043 39.375 12 39.375H18C18.7956 39.375 19.5587 39.0787 20.1213 38.5512C20.6839 38.0238 21 37.3084 21 36.5625V28.125ZM12 28.125H18V36.5625H12V28.125Z" fill="black"/>
</g>
<defs>
<clipPath id="clip0">
<rect width="48" height="45" fill="white" transform="matrix(-1 0 0 1 48 0)"/>
</clipPath>
</defs>
</svg>
